name rise36.2859peak64.2979fall75.1499.mot
datacolumns 19
datarows 15
range 15.02494100000000 15.04827200000000
endheader
time	ground_force1_vx	ground_force1_vy	ground_force1_vz	ground_force1_px	ground_force1_py	ground_force1_pz	ground_force2_vx	ground_force2_vy	ground_force2_vz	ground_force2_px	ground_force2_py	ground_force2_pz	ground_torque1_x	ground_torque1_y	ground_torque1_z	ground_torque2_x	ground_torque2_y	ground_torque2_z	
15.02494100000000	2.86731400000000	693.82316800000001	39.12081800000000	0.30918900000000	0.00000000000000	0.09012100000000	0.00000000000000	0.00000000000000	0.00000000000000	0.00000000000000	0.00000000000000	0.00000000000000	0.00000000000000	23.53672900000000	0.00000000000000	0.00000000000000	0.00000000000000	0.00000000000000	
15.02661400000000	2.41896900000000	694.66201100000001	39.15346600000000	0.30810100000000	0.00000000000000	0.09013500000000	0.00000000000000	0.00000000000000	0.00000000000000	0.00000000000000	0.00000000000000	0.00000000000000	0.00000000000000	23.58995900000000	0.00000000000000	0.00000000000000	0.00000000000000	0.00000000000000	
15.02827900000000	1.96192300000000	695.53080399999999	39.19293500000000	0.30702100000000	0.00000000000000	0.09015000000000	0.00000000000000	0.00000000000000	0.00000000000000	0.00000000000000	0.00000000000000	0.00000000000000	0.00000000000000	23.64995200000000	0.00000000000000	0.00000000000000	0.00000000000000	0.00000000000000	
15.02994600000000	1.49571400000000	696.42848200000003	39.23894300000000	0.30594900000000	0.00000000000000	0.09016400000000	0.00000000000000	0.00000000000000	0.00000000000000	0.00000000000000	0.00000000000000	0.00000000000000	0.00000000000000	23.71654300000000	0.00000000000000	0.00000000000000	0.00000000000000	0.00000000000000	
15.03161200000000	1.01990500000000	697.35410300000001	39.29120700000000	0.30488500000000	0.00000000000000	0.09018000000000	0.00000000000000	0.00000000000000	0.00000000000000	0.00000000000000	0.00000000000000	0.00000000000000	0.00000000000000	23.78956500000000	0.00000000000000	0.00000000000000	0.00000000000000	0.00000000000000	
15.03327700000000	0.53408900000000	698.30685500000004	39.34944800000000	0.30382800000000	0.00000000000000	0.09019500000000	0.00000000000000	0.00000000000000	0.00000000000000	0.00000000000000	0.00000000000000	0.00000000000000	0.00000000000000	23.86885000000000	0.00000000000000	0.00000000000000	0.00000000000000	0.00000000000000	
15.03494000000000	0.03788800000000	699.28605000000005	39.41339000000000	0.30278000000000	0.00000000000000	0.09021100000000	0.00000000000000	0.00000000000000	0.00000000000000	0.00000000000000	0.00000000000000	0.00000000000000	0.00000000000000	23.95422900000000	0.00000000000000	0.00000000000000	0.00000000000000	0.00000000000000	
15.03660500000000	-0.46904400000000	700.29113400000006	39.48276200000000	0.30174000000000	0.00000000000000	0.09022600000000	0.00000000000000	0.00000000000000	0.00000000000000	0.00000000000000	0.00000000000000	0.00000000000000	0.00000000000000	24.04552800000000	0.00000000000000	0.00000000000000	0.00000000000000	0.00000000000000	
15.03828000000000	-0.98701900000000	701.32167900000002	39.55729800000000	0.30070800000000	0.00000000000000	0.09024200000000	0.00000000000000	0.00000000000000	0.00000000000000	0.00000000000000	0.00000000000000	0.00000000000000	0.00000000000000	24.14257600000000	0.00000000000000	0.00000000000000	0.00000000000000	0.00000000000000	
15.03994100000000	-1.51631300000000	702.37738600000000	39.63673800000000	0.29968400000000	0.00000000000000	0.09025900000000	0.00000000000000	0.00000000000000	0.00000000000000	0.00000000000000	0.00000000000000	0.00000000000000	0.00000000000000	24.24519700000000	0.00000000000000	0.00000000000000	0.00000000000000	0.00000000000000	
15.04161400000000	-2.05716800000000	703.45808399999999	39.72082900000000	0.29866800000000	0.00000000000000	0.09027500000000	0.00000000000000	0.00000000000000	0.00000000000000	0.00000000000000	0.00000000000000	0.00000000000000	0.00000000000000	24.35321700000000	0.00000000000000	0.00000000000000	0.00000000000000	0.00000000000000	
15.04327600000000	-2.60978600000000	704.56372299999998	39.80932500000000	0.29765900000000	0.00000000000000	0.09029100000000	0.00000000000000	0.00000000000000	0.00000000000000	0.00000000000000	0.00000000000000	0.00000000000000	0.00000000000000	24.46645900000000	0.00000000000000	0.00000000000000	0.00000000000000	0.00000000000000	
15.04493900000000	-3.17433200000000	705.69437400000004	39.90198800000000	0.29665900000000	0.00000000000000	0.09030800000000	0.00000000000000	0.00000000000000	0.00000000000000	0.00000000000000	0.00000000000000	0.00000000000000	0.00000000000000	24.58474700000000	0.00000000000000	0.00000000000000	0.00000000000000	0.00000000000000	
15.04660900000000	-3.75092900000000	706.85022300000003	39.99858800000000	0.29566700000000	0.00000000000000	0.09032400000000	0.00000000000000	0.00000000000000	0.00000000000000	0.00000000000000	0.00000000000000	0.00000000000000	0.00000000000000	24.70790300000000	0.00000000000000	0.00000000000000	0.00000000000000	0.00000000000000	
15.04827200000000	-4.33966200000000	708.03156500000000	40.09890600000000	0.29468200000000	0.00000000000000	0.09034100000000	0.00000000000000	0.00000000000000	0.00000000000000	0.00000000000000	0.00000000000000	0.00000000000000	0.00000000000000	24.83574800000000	0.00000000000000	0.00000000000000	0.00000000000000	0.00000000000000	
